<mxfile host="app.diagrams.net" modified="2024-05-08T06:57:13.425Z" agent="Mozilla/5.0 (Windows NT 10.0; Win64; x64) AppleWebKit/537.36 (KHTML, like Gecko) Chrome/124.0.0.0 Safari/537.36 Edg/124.0.0.0" etag="AKOeQRSouUgsTVuBpsZe" version="24.3.1" type="github">
  <diagram name="第 1 页" id="A-lZTEchQl7mIgZinoCd">
    <mxGraphModel dx="899" dy="571" grid="1" gridSize="10" guides="1" tooltips="1" connect="1" arrows="1" fold="1" page="1" pageScale="1" pageWidth="827" pageHeight="1169" math="0" shadow="0">
      <root>
        <mxCell id="0" />
        <mxCell id="1" parent="0" />
        <mxCell id="2cnC_9ASC_gIRCOhBWuR-1" value="借阅系统后台" style="rounded=0;whiteSpace=wrap;html=1;" vertex="1" parent="1">
          <mxGeometry x="370" y="80" width="120" height="60" as="geometry" />
        </mxCell>
        <mxCell id="2cnC_9ASC_gIRCOhBWuR-15" value="" style="edgeStyle=orthogonalEdgeStyle;rounded=0;orthogonalLoop=1;jettySize=auto;html=1;entryX=0.5;entryY=1;entryDx=0;entryDy=0;endArrow=none;endFill=0;" edge="1" parent="1" source="2cnC_9ASC_gIRCOhBWuR-2" target="2cnC_9ASC_gIRCOhBWuR-1">
          <mxGeometry relative="1" as="geometry">
            <mxPoint x="170" y="120" as="targetPoint" />
            <Array as="points">
              <mxPoint x="130" y="170" />
              <mxPoint x="430" y="170" />
            </Array>
          </mxGeometry>
        </mxCell>
        <mxCell id="2cnC_9ASC_gIRCOhBWuR-2" value="信息管理" style="rounded=0;whiteSpace=wrap;html=1;" vertex="1" parent="1">
          <mxGeometry x="69" y="200" width="120" height="60" as="geometry" />
        </mxCell>
        <mxCell id="2cnC_9ASC_gIRCOhBWuR-12" value="" style="edgeStyle=orthogonalEdgeStyle;rounded=0;orthogonalLoop=1;jettySize=auto;html=1;endArrow=none;endFill=0;" edge="1" parent="1" source="2cnC_9ASC_gIRCOhBWuR-3" target="2cnC_9ASC_gIRCOhBWuR-2">
          <mxGeometry relative="1" as="geometry" />
        </mxCell>
        <mxCell id="2cnC_9ASC_gIRCOhBWuR-3" value="图书信息" style="rounded=0;whiteSpace=wrap;html=1;" vertex="1" parent="1">
          <mxGeometry x="19" y="300" width="60" height="80" as="geometry" />
        </mxCell>
        <mxCell id="2cnC_9ASC_gIRCOhBWuR-13" value="" style="edgeStyle=orthogonalEdgeStyle;rounded=0;orthogonalLoop=1;jettySize=auto;html=1;endArrow=none;endFill=0;" edge="1" parent="1" source="2cnC_9ASC_gIRCOhBWuR-5" target="2cnC_9ASC_gIRCOhBWuR-2">
          <mxGeometry relative="1" as="geometry" />
        </mxCell>
        <mxCell id="2cnC_9ASC_gIRCOhBWuR-5" value="读者信息" style="rounded=0;whiteSpace=wrap;html=1;" vertex="1" parent="1">
          <mxGeometry x="99" y="300" width="60" height="80" as="geometry" />
        </mxCell>
        <mxCell id="2cnC_9ASC_gIRCOhBWuR-14" value="" style="edgeStyle=orthogonalEdgeStyle;rounded=0;orthogonalLoop=1;jettySize=auto;html=1;endArrow=none;endFill=0;" edge="1" parent="1" source="2cnC_9ASC_gIRCOhBWuR-6" target="2cnC_9ASC_gIRCOhBWuR-2">
          <mxGeometry relative="1" as="geometry" />
        </mxCell>
        <mxCell id="2cnC_9ASC_gIRCOhBWuR-6" value="管理员信息" style="rounded=0;whiteSpace=wrap;html=1;" vertex="1" parent="1">
          <mxGeometry x="179" y="300" width="60" height="80" as="geometry" />
        </mxCell>
        <mxCell id="2cnC_9ASC_gIRCOhBWuR-16" value="" style="edgeStyle=orthogonalEdgeStyle;rounded=0;orthogonalLoop=1;jettySize=auto;html=1;strokeColor=default;align=center;verticalAlign=middle;fontFamily=Helvetica;fontSize=11;fontColor=default;labelBackgroundColor=default;endArrow=none;endFill=0;exitX=0.5;exitY=0;exitDx=0;exitDy=0;" edge="1" parent="1" source="2cnC_9ASC_gIRCOhBWuR-7" target="2cnC_9ASC_gIRCOhBWuR-1">
          <mxGeometry relative="1" as="geometry" />
        </mxCell>
        <mxCell id="2cnC_9ASC_gIRCOhBWuR-7" value="图书归还" style="rounded=0;whiteSpace=wrap;html=1;" vertex="1" parent="1">
          <mxGeometry x="220" y="200" width="120" height="60" as="geometry" />
        </mxCell>
        <mxCell id="2cnC_9ASC_gIRCOhBWuR-17" value="" style="edgeStyle=orthogonalEdgeStyle;rounded=0;orthogonalLoop=1;jettySize=auto;html=1;strokeColor=default;align=center;verticalAlign=middle;fontFamily=Helvetica;fontSize=11;fontColor=default;labelBackgroundColor=default;endArrow=none;endFill=0;" edge="1" parent="1" source="2cnC_9ASC_gIRCOhBWuR-8" target="2cnC_9ASC_gIRCOhBWuR-1">
          <mxGeometry relative="1" as="geometry" />
        </mxCell>
        <mxCell id="2cnC_9ASC_gIRCOhBWuR-8" value="报表处理" style="rounded=0;whiteSpace=wrap;html=1;" vertex="1" parent="1">
          <mxGeometry x="370" y="200" width="120" height="60" as="geometry" />
        </mxCell>
        <mxCell id="2cnC_9ASC_gIRCOhBWuR-20" value="" style="edgeStyle=orthogonalEdgeStyle;rounded=0;orthogonalLoop=1;jettySize=auto;html=1;strokeColor=default;align=center;verticalAlign=middle;fontFamily=Helvetica;fontSize=11;fontColor=default;labelBackgroundColor=default;endArrow=none;endFill=0;entryX=0.5;entryY=1;entryDx=0;entryDy=0;" edge="1" parent="1" source="2cnC_9ASC_gIRCOhBWuR-9" target="2cnC_9ASC_gIRCOhBWuR-1">
          <mxGeometry relative="1" as="geometry">
            <mxPoint x="580" y="120" as="targetPoint" />
            <Array as="points">
              <mxPoint x="580" y="170" />
              <mxPoint x="430" y="170" />
            </Array>
          </mxGeometry>
        </mxCell>
        <mxCell id="2cnC_9ASC_gIRCOhBWuR-9" value="互借管理" style="rounded=0;whiteSpace=wrap;html=1;" vertex="1" parent="1">
          <mxGeometry x="520" y="200" width="120" height="60" as="geometry" />
        </mxCell>
        <mxCell id="2cnC_9ASC_gIRCOhBWuR-19" value="" style="edgeStyle=orthogonalEdgeStyle;rounded=0;orthogonalLoop=1;jettySize=auto;html=1;strokeColor=default;align=center;verticalAlign=middle;fontFamily=Helvetica;fontSize=11;fontColor=default;labelBackgroundColor=default;endArrow=none;endFill=0;" edge="1" parent="1" source="2cnC_9ASC_gIRCOhBWuR-10" target="2cnC_9ASC_gIRCOhBWuR-1">
          <mxGeometry relative="1" as="geometry">
            <mxPoint x="730" y="120" as="targetPoint" />
            <Array as="points">
              <mxPoint x="730" y="170" />
              <mxPoint x="430" y="170" />
            </Array>
          </mxGeometry>
        </mxCell>
        <mxCell id="2cnC_9ASC_gIRCOhBWuR-10" value="违规处理" style="rounded=0;whiteSpace=wrap;html=1;" vertex="1" parent="1">
          <mxGeometry x="670" y="200" width="120" height="60" as="geometry" />
        </mxCell>
      </root>
    </mxGraphModel>
  </diagram>
</mxfile>
